<svg height="512" viewBox="0 0 58 58" width="512" xmlns="http://www.w3.org/2000/svg"><g id="Page-1" fill="none" fill-rule="evenodd"><g id="040---Browser-Contact-Form"><path id="Path" d="m58 4v4h-58v-4c0-2.209139 1.790861-4 4-4h50c2.209139 0 4 1.790861 4 4z" fill="#3b97d3"/><path id="Path" d="m58 8v46c0 2.209139-1.790861 4-4 4h-50c-2.209139 0-4-1.790861-4-4v-46z" fill="#ecf0f1"/><circle id="Oval" cx="46" cy="4" fill="#65ddb9" r="1"/><circle id="Oval" cx="50" cy="4" fill="#f3d55b" r="1"/><circle id="Oval" cx="54" cy="4" fill="#e64c3c" r="1"/><g fill="#d1d4d1"><rect id="Rectangle" height="6" rx="1" width="22" x="5" y="13"/><rect id="Rectangle" height="6" rx="1" width="22" x="31" y="13"/><rect id="Rectangle" height="22" rx="1" width="48" x="5" y="23"/></g><rect id="Rectangle" fill="#4fba6f" height="4" rx="2" width="18" x="35" y="49"/><path id="Path" d="m12 28h-3c-.55228475 0-1-.4477153-1-1s.44771525-1 1-1h3c.5522847 0 1 .4477153 1 1s-.4477153 1-1 1z" fill="#35495e"/><path id="Path" d="m28 28h-12c-.5522847 0-1-.4477153-1-1s.4477153-1 1-1h12c.5522847 0 1 .4477153 1 1s-.4477153 1-1 1z" fill="#35495e"/><path id="Path" d="m35 32h-26c-.55228475 0-1-.4477153-1-1s.44771525-1 1-1h26c.5522847 0 1 .4477153 1 1s-.4477153 1-1 1z" fill="#35495e"/><path id="Path" d="m6.414 4 .293-.293c.37897221-.39237889.37355237-1.01608478-.01218142-1.40181858-.3857338-.38573379-1.00943969-.39115363-1.40181858-.01218142l-.293.293-.293-.293c-.39237889-.37897221-1.01608478-.37355237-1.40181858.01218142-.38573379.3857338-.39115363 1.00943969-.01218142 1.40181858l.293.293-.293.293c-.25995658.25107447-.3642126.62287789-.27269716.97250732.09151544.34962944.3645604.6226744.71418984.71418984.34962943.09151544.72143285-.01274058.97250732-.27269716l.293-.293.293.293c.39237889.37897221 1.01608478.37355237 1.40181858-.01218142.38573379-.3857338.39115363-1.00943969.01218142-1.40181858z" fill="#2980ba"/></g></g></svg>